#!OML:ASF F:\VICON\USERDATA\INSTALL\rory3\rory3.ASF
:FULLY-SPECIFIED
:DEGREES
1767
root 2.00298 10.2546 -4.60923 180.549 122.671 183.955
lowerback 31.8374 -2.05845 -3.06685
upperback 13.834 -2.44984 0.321309
thorax -1.47206 -0.970095 2.87599
lowerneck -15.0906 -0.171034 -11.9517
upperneck 27.4118 3.6095 -0.485159
head 11.31 0.455713 2.36292
rclavicle -4.47266e-015 -1.32192e-014
rhumerus -32.0693 21.684 -86.0179
rradius 111.1
rwrist 48.098
rhand -49.4622 13.05
rfingers 7.12502
rthumb -22.0728 -15.7103
lclavicle -4.47266e-015 -1.32192e-014
lhumerus -27.4118 -16.0071 87.9565
lradius 105.81
lwrist -29.3148
lhand -44.6531 27.1687
lfingers 7.12502
lthumb -17.4498 56.4054
rfemur -89.8033 -22.839 22.5906
rtibia 110.028
rfoot -16.2886 6.63629
rtoes -13.1286
lfemur -88.2548 10.7017 -22.6256
ltibia 105.767
lfoot -12.5603 -13.8318
ltoes -3.01389
1768
root 2.02063 10.2688 -4.59573 181.036 122.826 183.908
lowerback 32.116 -1.95137 -3.12665
upperback 13.8876 -2.32669 0.344183
thorax -1.53362 -0.908773 2.90516
lowerneck -14.9372 -0.217602 -11.9094
upperneck 27.1518 3.49261 -0.509511
head 11.1877 0.418535 2.32458
rclavicle 6.10269e-014 -3.52843e-014
rhumerus -32.3679 21.8271 -85.5866
rradius 111.658
rwrist 48.135
rhand -49.9441 13.3188
rfingers 7.12502
rthumb -22.5354 -15.3861
lclavicle 6.10269e-014 -3.52843e-014
lhumerus -27.6121 -16.2613 88.0309
lradius 106.388
lwrist -28.9142
lhand -44.9985 27.6452
lfingers 7.12502
lthumb -17.7822 56.8522
rfemur -90.2649 -22.6768 22.8178
rtibia 109.998
rfoot -16.5702 6.5582
rtoes -12.2905
lfemur -88.7211 10.7988 -22.6493
ltibia 105.81
lfoot -12.6824 -13.6573
ltoes -2.98617
1769
root 2.04244 10.2803 -4.57953 181.69 123.011 183.968
lowerback 32.3654 -1.83298 -3.21227
upperback 13.8839 -2.20635 0.322106
thorax -1.64949 -0.848535 2.89957
lowerneck -14.8568 -0.270669 -11.951
upperneck 26.9938 3.3689 -0.39572
head 11.1144 0.380408 2.35266
rclavicle 1.02871e-014 2.64881e-014
rhumerus -32.7307 22.018 -85.1419
rradius 112.257
rwrist 48.0857
rhand -50.277 13.183
rfingers 7.12502
rthumb -22.8549 -15.4827
lclavicle 1.02871e-014 2.64881e-014
lhumerus -27.906 -16.4762 87.9974
lradius 107.064
lwrist -28.5115
lhand -44.6398 26.5089
lfingers 7.12502
lthumb -17.437 55.7469
rfemur -90.8517 -22.5168 23.0001
rtibia 109.988
rfoot -16.7617 6.56139
rtoes -11.0435
lfemur -89.2838 10.9698 -22.8101
ltibia 105.888
lfoot -12.9097 -13.4514
ltoes -3.65071
1770
root 2.0631 10.2894 -4.56063 182.24 123.255 183.94
lowerback 32.7003 -1.69422 -3.22538
upperback 13.8944 -2.04261 0.268103
thorax -1.79376 -0.761085 2.80416
lowerneck -14.9219 -0.345592 -12.1773
upperneck 26.9373 3.19508 0.0543529
head 11.0994 0.334442 2.53094
rclavicle -1.1778e-014 -8.69683e-015
rhumerus -33.0821 22.1391 -84.6783
rradius 112.929
rwrist 48.0235
rhand -50.5695 13.1611
rfingers 7.12502
rthumb -23.1357 -15.4697
lclavicle -1.1778e-014 -8.69683e-015
lhumerus -28.1211 -16.714 87.8639
lradius 107.717
lwrist -28.0257
lhand -44.4407 24.9705
lfingers 7.12502
lthumb -17.2454 54.2253
rfemur -91.4373 -22.2459 23.2557
rtibia 109.971
rfoot -16.991 6.41639
rtoes -10.9599
lfemur -89.8227 11.2245 -22.8824
ltibia 105.975
lfoot -13.2576 -13.2121
ltoes -4.70701
1771
root 2.08594 10.2988 -4.54306 182.583 123.535 183.702
lowerback 33.5189 -1.53724 -3.17135
upperback 13.6137 -1.86697 0.363605
thorax -2.06761 -0.664681 2.61484
lowerneck -14.992 -0.417039 -12.2495
upperneck 26.8701 3.04907 0.286801
head 11.0888 0.290767 2.60794
rclavicle 1.03865e-014 4.48756e-014
rhumerus -33.5666 22.2341 -84.4433
rradius 113.633
rwrist 48.0874
rhand -51.0085 13.2146
rfingers 7.12502
rthumb -23.5567 -15.3627
lclavicle 1.03865e-014 4.48756e-014
lhumerus -28.346 -17.0263 87.7652
lradius 108.399
lwrist -27.3939
lhand -45.1424 25.6169
lfingers 7.12502
lthumb -17.9206 54.8112
rfemur -91.9779 -21.915 23.647
rtibia 109.938
rfoot -17.3455 6.14146
rtoes -12.229
lfemur -90.3552 11.5308 -22.8178
ltibia 106.088
lfoot -13.4764 -13.1066
ltoes -4.93534
1772
root 2.11088 10.3064 -4.52289 182.787 123.777 183.339
lowerback 33.8968 -1.41669 -3.14339
upperback 13.6545 -1.70448 0.440595
thorax -2.16759 -0.582846 2.63387
lowerneck -15.0617 -0.462674 -12.3649
upperneck 26.8849 2.97814 0.453086
head 11.1072 0.265336 2.67947
rclavicle -1.54058e-014 8.45332e-014
rhumerus -33.9669 22.409 -84.1587
rradius 114.231
rwrist 48.1463
rhand -51.5322 13.4481
rfingers 7.12502
rthumb -24.059 -15.0638
lclavicle -1.54058e-014 8.45332e-014
lhumerus -28.6145 -17.2192 87.691
lradius 109.113
lwrist -26.854
lhand -46.1229 27.9583
lfingers 7.12502
lthumb -18.8639 57.0636
rfemur -92.4417 -21.6396 24.0656
rtibia 109.919
rfoot -17.5287 5.99019
rtoes -13.1658
lfemur -90.853 11.8105 -22.6595
ltibia 106.226
lfoot -13.604 -13.1038
ltoes -4.57282
